# xmcd CD database file
#
# Track frame offsets:
#	150
#	13398
#	35302
#	52942
#	74969
#	91380
#	107501
#	124707
#	153382
#	169817
#	190033
#	211891
#	235052
#	266184
#
# Disc length: 3759 seconds
#
# Revision: 0
# Processed by: cddbd v1.5.2PL0 Copyright (c) Steve Scherf et al.
# Submitted via: CDex 1.70beta2
#
DISCID=c10ead0e
DTITLE=The Duo - The Duo
DYEAR=2007
DGENRE=Jazz
TTITLE0=Country
TTITLE1=With a Little Help from My Friends
TTITLE2=Europa
TTITLE3=See You
TTITLE4=Besame Mucho
TTITLE5=Our Spanish Love Song
TTITLE6=Greensleeves
TTITLE7=Stone Flower
TTITLE8=It's been a Long, Long Time
TTITLE9=Three Colours of the Sky
TTITLE10=Summertime
TTITLE11=Straight to My Heart
TTITLE12=La Pasionaria
TTITLE13=Miagetegoran Yorunohoshiwo
EXTD=YEAR: 2007
EXTT0=
EXTT1=
EXTT2=
EXTT3=
EXTT4=
EXTT5=
EXTT6=
EXTT7=
EXTT8=
EXTT9=
EXTT10=
EXTT11=
EXTT12=
EXTT13=
PLAYORDER=
